<mxfile host="app.diagrams.net" agent="Mozilla/5.0 (Windows NT 10.0; Win64; x64) AppleWebKit/537.36 (KHTML, like Gecko) Chrome/135.0.0.0 Safari/537.36" version="26.0.16">
  <diagram name="Page-1" id="NYqwiVDGZH257-K_ehYq">
    <mxGraphModel dx="794" dy="434" grid="1" gridSize="10" guides="1" tooltips="1" connect="1" arrows="1" fold="1" page="1" pageScale="1" pageWidth="850" pageHeight="1100" math="0" shadow="0">
      <root>
        <mxCell id="0" />
        <mxCell id="1" parent="0" />
        <mxCell id="gzMb29kUntsMGsYrp80x-6" style="edgeStyle=orthogonalEdgeStyle;rounded=0;orthogonalLoop=1;jettySize=auto;html=1;exitX=1;exitY=0.75;exitDx=0;exitDy=0;entryX=0;entryY=0.75;entryDx=0;entryDy=0;" edge="1" parent="1" source="gzMb29kUntsMGsYrp80x-1" target="gzMb29kUntsMGsYrp80x-3">
          <mxGeometry relative="1" as="geometry" />
        </mxCell>
        <mxCell id="gzMb29kUntsMGsYrp80x-13" style="edgeStyle=orthogonalEdgeStyle;rounded=0;orthogonalLoop=1;jettySize=auto;html=1;exitX=0.75;exitY=1;exitDx=0;exitDy=0;entryX=0;entryY=0.25;entryDx=0;entryDy=0;" edge="1" parent="1" source="gzMb29kUntsMGsYrp80x-1" target="gzMb29kUntsMGsYrp80x-11">
          <mxGeometry relative="1" as="geometry" />
        </mxCell>
        <mxCell id="gzMb29kUntsMGsYrp80x-14" style="edgeStyle=orthogonalEdgeStyle;rounded=0;orthogonalLoop=1;jettySize=auto;html=1;exitX=0.5;exitY=1;exitDx=0;exitDy=0;entryX=0;entryY=0.75;entryDx=0;entryDy=0;" edge="1" parent="1" source="gzMb29kUntsMGsYrp80x-1" target="gzMb29kUntsMGsYrp80x-12">
          <mxGeometry relative="1" as="geometry" />
        </mxCell>
        <mxCell id="gzMb29kUntsMGsYrp80x-1" value="Backend application" style="rounded=0;whiteSpace=wrap;html=1;" vertex="1" parent="1">
          <mxGeometry x="120" y="150" width="120" height="60" as="geometry" />
        </mxCell>
        <mxCell id="gzMb29kUntsMGsYrp80x-5" style="edgeStyle=orthogonalEdgeStyle;rounded=0;orthogonalLoop=1;jettySize=auto;html=1;exitX=0;exitY=0.25;exitDx=0;exitDy=0;entryX=1;entryY=0.25;entryDx=0;entryDy=0;" edge="1" parent="1" source="gzMb29kUntsMGsYrp80x-3" target="gzMb29kUntsMGsYrp80x-1">
          <mxGeometry relative="1" as="geometry" />
        </mxCell>
        <mxCell id="gzMb29kUntsMGsYrp80x-3" value="Web application using Angular" style="rounded=0;whiteSpace=wrap;html=1;" vertex="1" parent="1">
          <mxGeometry x="380" y="150" width="120" height="60" as="geometry" />
        </mxCell>
        <mxCell id="gzMb29kUntsMGsYrp80x-7" value="Request" style="text;html=1;align=center;verticalAlign=middle;whiteSpace=wrap;rounded=0;" vertex="1" parent="1">
          <mxGeometry x="290" y="130" width="60" height="30" as="geometry" />
        </mxCell>
        <mxCell id="gzMb29kUntsMGsYrp80x-9" value="Response" style="text;html=1;align=center;verticalAlign=middle;whiteSpace=wrap;rounded=0;" vertex="1" parent="1">
          <mxGeometry x="290" y="200" width="60" height="30" as="geometry" />
        </mxCell>
        <mxCell id="gzMb29kUntsMGsYrp80x-11" value="Mobile android application" style="rounded=0;whiteSpace=wrap;html=1;" vertex="1" parent="1">
          <mxGeometry x="380" y="250" width="120" height="60" as="geometry" />
        </mxCell>
        <mxCell id="gzMb29kUntsMGsYrp80x-12" value="Mobile ios application" style="rounded=0;whiteSpace=wrap;html=1;" vertex="1" parent="1">
          <mxGeometry x="380" y="330" width="120" height="60" as="geometry" />
        </mxCell>
        <mxCell id="gzMb29kUntsMGsYrp80x-15" style="edgeStyle=orthogonalEdgeStyle;rounded=0;orthogonalLoop=1;jettySize=auto;html=1;exitX=0.25;exitY=0;exitDx=0;exitDy=0;entryX=0.906;entryY=0.983;entryDx=0;entryDy=0;entryPerimeter=0;" edge="1" parent="1" source="gzMb29kUntsMGsYrp80x-11" target="gzMb29kUntsMGsYrp80x-1">
          <mxGeometry relative="1" as="geometry" />
        </mxCell>
        <mxCell id="gzMb29kUntsMGsYrp80x-16" style="edgeStyle=orthogonalEdgeStyle;rounded=0;orthogonalLoop=1;jettySize=auto;html=1;exitX=0;exitY=0.25;exitDx=0;exitDy=0;entryX=0.606;entryY=0.917;entryDx=0;entryDy=0;entryPerimeter=0;" edge="1" parent="1" source="gzMb29kUntsMGsYrp80x-12" target="gzMb29kUntsMGsYrp80x-1">
          <mxGeometry relative="1" as="geometry" />
        </mxCell>
      </root>
    </mxGraphModel>
  </diagram>
</mxfile>
